<svg xmlns="http://www.w3.org/2000/svg" viewBox="0 0 39.09 47.89"><defs><style>.cls-1{fill:#fff;}.cls-2{fill:#002f6e;}</style></defs><g id="Layer_2" data-name="Layer 2"><g id="Layer_1-2" data-name="Layer 1"><path class="cls-1" d="M19.39,46.71C.52,39.2,1.1,21.56,1.1,21.56v-15L19.54,1.15,38,6.53v15s.26,17.64-18.6,25.15"/><path class="cls-2" d="M19.39,47.89,19,47.73c-10.1-4-14.72-10.91-16.83-16A27.22,27.22,0,0,1,0,21.52V5.71L19.54,0,39.09,5.71V21.56c0,.17,0,18.47-19.3,26.17ZM2.2,7.36v14.2c0,.72-.29,16.76,17.19,24,7.29-3,12.44-7.9,15.32-14.55a25.68,25.68,0,0,0,2.18-9.39V7.36L19.54,2.29Z"/><polygon class="cls-2" points="31.28 19.87 31.28 25.33 22.52 25.33 22.52 34.09 17.06 34.09 17.06 25.33 8.3 25.33 8.3 19.87 17.06 19.87 17.06 11.11 22.52 11.11 22.52 19.87 31.28 19.87"/></g></g></svg>