<svg xmlns="http://www.w3.org/2000/svg" viewBox="0 0 46 45.71"><defs><style>.cls-1{fill:#002f6e;}</style></defs><g id="Layer_2" data-name="Layer 2"><g id="Layer_1-2" data-name="Layer 1"><path class="cls-1" d="M23.75,45.71C13.24,45.71,10.46,38.17,9,34.12c-.18-.48-.33-.92-.5-1.3-2.1-5.08-4.14-7.86-8.09-11A.92.92,0,0,1,0,21.16a1,1,0,0,1,.21-.72,6.11,6.11,0,0,1,4-2.56,6,6,0,0,1,4.4,1.73,57.53,57.53,0,0,1,4.54,4.28c.19.19.66.63,1,.47a1,1,0,0,0,.46-1,7.82,7.82,0,0,0-.88-2.45c-.16-.32-.3-.63-.43-.92L8.63,9h0a3.69,3.69,0,0,1,1.94-4.86,3.71,3.71,0,0,1,4.86,2l4.62,11V3.8A3.74,3.74,0,0,1,23,.07,3.7,3.7,0,0,1,26.1.85,3.65,3.65,0,0,1,27.44,3.7V15.38L30.79,4.32A3.66,3.66,0,0,1,32.86,2,3.72,3.72,0,0,1,36,2.06a3.83,3.83,0,0,1,1.85,4.5L34.48,18l5-5.9a3.7,3.7,0,0,1,2.83-1.3h0a3.68,3.68,0,0,1,2.84,1.33A3.77,3.77,0,0,1,45.05,17a26.74,26.74,0,0,0-4.26,5.7,24.41,24.41,0,0,0-2.43,8.39,20.22,20.22,0,0,1-2.2,7.53,13.78,13.78,0,0,1-12.41,7.13M2.38,21a26,26,0,0,1,7.88,11.13c.17.4.34.86.52,1.37,1.52,4.1,3.81,10.31,13,10.31a12,12,0,0,0,10.73-6.15,18.82,18.82,0,0,0,2-6.85,26.44,26.44,0,0,1,2.64-9,28.8,28.8,0,0,1,4.53-6.08,1.85,1.85,0,0,0,.08-2.32,1.78,1.78,0,0,0-1.35-.64,1.76,1.76,0,0,0-1.34.62l-6.37,7.47A1.51,1.51,0,0,1,32,19.38L36,6a1.85,1.85,0,0,0-.84-2.2,1.75,1.75,0,0,0-2.47,1.07l-4.21,13.9a1.51,1.51,0,0,1-2.95-.43V3.7A1.76,1.76,0,0,0,23.39,2,1.81,1.81,0,0,0,22,3.8V19.21a1.51,1.51,0,0,1-2.9.59l-5.47-13a1.74,1.74,0,0,0-2.29-.91,1.74,1.74,0,0,0-.93,2.29l4.73,11.05c.12.27.26.55.4.84a9,9,0,0,1,1.06,3.14A2.91,2.91,0,0,1,15,26.13a2.73,2.73,0,0,1-3.23-.9A55.35,55.35,0,0,0,7.4,21.1a4.22,4.22,0,0,0-3-1.28,3.46,3.46,0,0,0-2,1.13m31.52-1Z"/><path class="cls-1" d="M23.75,41.32H23.6c-.57-.1-5.69-4.33-7.53-7.24a5.43,5.43,0,0,1-.69-4.39,4.77,4.77,0,0,1,2.55-3.05,5.11,5.11,0,0,1,5.82,1,5.11,5.11,0,0,1,5.84-1,4.77,4.77,0,0,1,2.53,3,5.48,5.48,0,0,1-.69,4.4c-1.84,2.91-7,7.14-7.54,7.24h-.14m-3.7-13.5a3,3,0,0,0-1.36.33,3.1,3.1,0,0,0-1.67,2,3.68,3.68,0,0,0,.49,3c1.46,2.31,4.89,5.19,6.24,6.24,1.34-1,4.78-3.93,6.24-6.24a3.73,3.73,0,0,0,.49-3,3.14,3.14,0,0,0-1.65-2,3.52,3.52,0,0,0-4.37,1.27.88.88,0,0,1-1.42,0,3.8,3.8,0,0,0-3-1.61"/></g></g></svg>