<svg xmlns="http://www.w3.org/2000/svg" viewBox="0 0 39.6 48.13"><defs><style>.cls-1{fill:#002f6e;}</style></defs><g id="Layer_2" data-name="Layer 2"><g id="Layer_1-2" data-name="Layer 1"><path class="cls-1" d="M12.62,42.55A8.79,8.79,0,0,1,10,42.13C7.42,41.3,2.78,38.5.3,29L0,27.81,1.17,28a44.92,44.92,0,0,0,5.19.33c3.49.1,6.78.19,9.11,1.88,3.41,2.47,4.59,7,2.63,10.08a.87.87,0,0,1-.26.28.63.63,0,0,1-.18.22,7.91,7.91,0,0,1-5,1.78M2.14,29.68c2.34,7.91,6.17,10.25,8.31,10.94a6.58,6.58,0,0,0,5.72-.71A12.69,12.69,0,0,0,8.58,34a.8.8,0,0,1-.51-1,.79.79,0,0,1,1-.51,14.35,14.35,0,0,1,8.13,6c.81-2.3-.26-5.35-2.64-7.08-1.94-1.41-5-1.49-8.24-1.58-1.37,0-2.77-.07-4.17-.21"/><path class="cls-1" d="M29.78,38.51a5.46,5.46,0,0,1-4.3-1.91,1.12,1.12,0,0,1-.16-.28.86.86,0,0,1-.13-.23,6.48,6.48,0,0,1,.95-6.17c1.26-1.7,4.53-4.45,12.27-3.9l1.19.09-.54,1.06a33.26,33.26,0,0,0-1.53,3.71c-1,2.57-1.86,5-3.73,6.33a7,7,0,0,1-4,1.3m-2.27-2.2a5,5,0,0,0,5.38-.39c1.47-1,2.29-3.25,3.15-5.59.34-.92.69-1.86,1.1-2.79-6.14-.17-8.72,2-9.73,3.32a5,5,0,0,0-.92,4.08,9.66,9.66,0,0,0,6-4,.81.81,0,0,1,1.11-.17.8.8,0,0,1,.16,1.11,11.28,11.28,0,0,1-6.21,4.44"/><path class="cls-1" d="M20.77,48.13l-.23,0a1,1,0,0,1-.71-1.18c2.47-10.13,1-15.3-.26-19.85-1.21-4.3-2.26-8,.36-14.33a1,1,0,0,1,1.79.75c-2.35,5.69-1.44,8.94-.28,13.05,1.28,4.55,2.87,10.21.28,20.84a1,1,0,0,1-.95.75"/><path class="cls-1" d="M20.56,28h0a7.29,7.29,0,0,1-5.18-2.49,11.32,11.32,0,0,1-2.76-8.24c.16-3.3,2.11-5.9,4.57-9.19A70.81,70.81,0,0,0,21.82,1.3L22.59,0l.87,1.24c4.84,7,6.86,12.93,6,17.79a11.4,11.4,0,0,1-5,7.51,1,1,0,0,1-1.35-.24,1,1,0,0,1,.25-1.36,9.54,9.54,0,0,0,4.23-6.25c.71-4-1-9.19-4.83-15.1-1.4,2.21-2.76,4-4,5.65-2.35,3.14-4,5.41-4.19,8.11a9.53,9.53,0,0,0,2.25,6.84A5.4,5.4,0,0,0,20.59,26a1,1,0,0,1,0,1.95"/></g></g></svg>