<svg xmlns="http://www.w3.org/2000/svg" xmlns:xlink="http://www.w3.org/1999/xlink" viewBox="0 0 52.13 46.27"><defs><style>.cls-1{isolation:isolate;}.cls-2{fill:none;}.cls-3{mask:url(#mask);}.cls-4{clip-path:url(#clip-path);}.cls-5{clip-path:url(#clip-path-2);}.cls-6{fill:#002f6e;}.cls-7{filter:url(#luminosity-noclip);}</style><filter id="luminosity-noclip" x="0.26" y="-4.63" width="51.62" height="13.25" filterUnits="userSpaceOnUse" color-interpolation-filters="sRGB"><feFlood flood-color="#fff" result="bg"/><feBlend in="SourceGraphic" in2="bg"/></filter><mask id="mask" x="0.26" y="-6.14" width="51.62" height="13.25" maskUnits="userSpaceOnUse"><g class="cls-7"><g transform="translate(0 -1.51)"><g class="cls-1"><rect x="-0.49" y="1.02" width="30.58" height="1.95" transform="translate(0.33 5.69) rotate(-21.99)"/><rect x="36.36" y="-13.3" width="1.95" height="30.58" transform="translate(21.51 35.87) rotate(-68.03)"/></g></g></g></mask><clipPath id="clip-path" transform="translate(0 -1.51)"><rect class="cls-2" x="13.52" width="23.67" height="7.89"/></clipPath><clipPath id="clip-path-2" transform="translate(0 -1.51)"><rect class="cls-2" x="15.11" y="1.51" width="21.89" height="4.04"/></clipPath></defs><g id="Layer_2" data-name="Layer 2"><g id="Layer_1-2" data-name="Layer 1"><g class="cls-3"><g class="cls-1"><g class="cls-4"><g class="cls-5"><path class="cls-6" d="M26.25,5.56A27.6,27.6,0,0,1,15.11,3.28L16,1.53c.1,0,9.88,4.61,20.26,0L37,3.29A26.23,26.23,0,0,1,26.25,5.56" transform="translate(0 -1.51)"/></g></g></g></g><path class="cls-6" d="M41,47.78H11.17V20.84a.77.77,0,0,0-.77-.78H4.31A1.56,1.56,0,0,1,2.81,19L.08,10.56A1.56,1.56,0,0,1,1,8.62L16.12,2.51l.33,1a10.18,10.18,0,0,0,9.61,7,10.19,10.19,0,0,0,9.62-6.95l.33-1L51.15,8.62a1.56,1.56,0,0,1,.9,1.94L49.32,19a1.56,1.56,0,0,1-1.49,1.08h-6.1a.77.77,0,0,0-.77.78ZM13.12,45.84H39v-25a2.72,2.72,0,0,1,2.72-2.72h5.82l2.55-7.83-13-5.22a12.1,12.1,0,0,1-11.09,7.31A12.1,12.1,0,0,1,15,5.07L2,10.29l2.55,7.83H10.4a2.72,2.72,0,0,1,2.72,2.72Z" transform="translate(0 -1.51)"/><path class="cls-6" d="M28.82,29.36A1,1,0,0,1,29,29.3l.19-.09a1.25,1.25,0,0,1,.25-.09c.08,0,.31-.1.36-.13a1.65,1.65,0,0,1,.34-.12,3,3,0,0,0,.32-.12l.3-.1.46-.24a1.25,1.25,0,0,0,.27-.1,3.77,3.77,0,0,1,.38-.23,1.68,1.68,0,0,0,.4-.35c.09-.1.17-.22.25-.3s.08-.17.13-.23a1.33,1.33,0,0,0,.14-.35A3.57,3.57,0,0,0,33,26.3a5.12,5.12,0,0,0,0-.56,3.46,3.46,0,0,1,0-.37.71.71,0,0,0-.16-.31.55.55,0,0,0-.22-.14l-.38-.17a1.74,1.74,0,0,0-.26-.15.86.86,0,0,0-.27,0,.74.74,0,0,0-.17,0h-.2a1.4,1.4,0,0,0-.34.13,2.69,2.69,0,0,1-.32.14,3,3,0,0,0-.42.27,1.53,1.53,0,0,0-.29.33c0,.06-.16.13-.21.19a1.22,1.22,0,0,0-.17.28c0,.08-.25.33-.29.41a3.19,3.19,0,0,0-.12.4c0,.12-.11.35-.12.42a.5.5,0,0,1,0,.27.74.74,0,0,0-.06.25,1.09,1.09,0,0,0,0,.24.94.94,0,0,1-.06.36.91.91,0,0,1-.14.31.76.76,0,0,0-.06.27,2,2,0,0,1-.06.28.16.16,0,0,0,0,.19.24.24,0,0,0,.3,0" transform="translate(0 -1.51)"/><path class="cls-6" d="M34.87,41.47c0-.06-.08-.21-.06-.26s0-.07,0-.1a.22.22,0,0,1,0-.14s0-.08,0-.16a.45.45,0,0,0-.13-.17.56.56,0,0,1-.11-.19c0-.07-.06-.08-.14-.16s-.19-.14-.24-.18S34.05,40,34,40s-.07,0-.09-.08a.5.5,0,0,0-.17-.11c-.09,0-.14,0-.22-.07l-.17-.13-.12-.06a.43.43,0,0,1-.15-.08,1,1,0,0,1-.12-.13.63.63,0,0,0-.21-.13.32.32,0,0,1-.18-.12l-.2-.17a1.54,1.54,0,0,0-.34-.17.55.55,0,0,1-.21-.14.66.66,0,0,0-.15-.14l-.31-.13a1.35,1.35,0,0,1-.28-.23,1.48,1.48,0,0,0-.3-.16,2.87,2.87,0,0,1-.33-.24,1,1,0,0,0-.25-.14,1.43,1.43,0,0,1-.22-.15.31.31,0,0,1-.13-.16.5.5,0,0,0-.11-.17s0-.08-.07-.14l-.14-.18a.94.94,0,0,0-.17-.18l-.26-.28a1.46,1.46,0,0,1-.23-.29,1,1,0,0,0-.12-.17.94.94,0,0,0-.09-.12.53.53,0,0,1-.13-.16l-.09-.23c-.05-.11-.14-.28-.19-.37s-.21-.23-.24-.29a.77.77,0,0,0-.1-.15,1.34,1.34,0,0,1-.13-.32,1.58,1.58,0,0,1-.07-.16.55.55,0,0,0-.09-.19,1.11,1.11,0,0,1-.09-.29c0-.1-.05-.23-.07-.29s0-.09-.07-.19a1.32,1.32,0,0,1,0-.34.94.94,0,0,0,0-.16,2.44,2.44,0,0,1,0-.26c0-.09,0-.17,0-.24s.05-.15.05-.2a1.77,1.77,0,0,1,0-.2,1.73,1.73,0,0,0,0-.35.6.6,0,0,1,0-.2,2.1,2.1,0,0,0,.06-.24.62.62,0,0,1,0-.18c0-.08.06-.12.08-.17a1.09,1.09,0,0,0,0-.17.58.58,0,0,1,.11-.18.18.18,0,0,0,0-.22s-.09,0-.16,0a.41.41,0,0,1-.16,0c-.09,0-.07,0-.16,0a.51.51,0,0,0-.21.09l-.25.14c-.06,0-.09.06-.17.09a.68.68,0,0,0-.15.08.57.57,0,0,1-.21.1,1.94,1.94,0,0,1-.4,0,1,1,0,0,0-.22,0l-.29,0a1.72,1.72,0,0,1-.32-.06l-.36-.1-.31-.09c-.06,0-.23-.1-.32-.13s-.24-.16-.31-.2-.11-.11-.15-.14-.11-.06-.15-.1a1.36,1.36,0,0,0-.17-.16.49.49,0,0,1-.11-.14.7.7,0,0,0-.13-.16c0-.05-.14-.13-.19-.18a.46.46,0,0,1-.12-.24.68.68,0,0,0-.08-.19l-.12-.2a1.7,1.7,0,0,1-.12-.3,1.54,1.54,0,0,0-.1-.24,2.39,2.39,0,0,1-.11-.32,2.33,2.33,0,0,0-.06-.25c0-.08-.07-.16-.08-.18s-.05-.08-.05-.12a.18.18,0,0,0,0-.1.65.65,0,0,1,0-.13s-.09-.28-.1-.35a2.56,2.56,0,0,0-.14-.36,3,3,0,0,1-.16-.51,1.39,1.39,0,0,0-.1-.31c0-.1-.13-.29-.15-.35a2.61,2.61,0,0,0-.08-.38c-.05-.11-.12-.28-.17-.36a2,2,0,0,1-.09-.25c0-.06,0-.16,0-.26a2.52,2.52,0,0,0-.12-.29c0-.09-.13-.24-.17-.35s-.06-.28-.08-.34-.11-.1-.16-.13,0-.06-.07-.14a.44.44,0,0,0-.1-.15.52.52,0,0,0-.17-.15l-.2-.12c-.06,0-.06-.06-.15-.1a1.09,1.09,0,0,0-.25-.1c-.09,0-.07,0-.14,0s-.07,0-.14-.05a1,1,0,0,0-.28,0c-.06,0-.06,0-.12,0s0,0-.09,0-.08,0-.15,0-.08,0-.15,0a.42.42,0,0,0-.13.07c-.06,0-.06.07-.12.1A.42.42,0,0,0,18,22a.7.7,0,0,0-.15.15,1.5,1.5,0,0,1-.18.24s-.08.21-.11.27-.16.37-.18.44a1.54,1.54,0,0,0,0,.19,1,1,0,0,0,0,.23.49.49,0,0,1,0,.2s-.05.17-.07.2a1.31,1.31,0,0,0,0,.2l0,.2s.05.1.07.16l.05.16c0,.07,0,.1,0,.22s.12.34.16.43l.15.3a.87.87,0,0,0,.15.25A1,1,0,0,1,18,26a.7.7,0,0,0,.15.19,1.35,1.35,0,0,0,.22.28l.27.26c.1.08.21.2.31.28l.24.26.16.14a.45.45,0,0,1,.12.12c.05.06.1.06.17.13s.11.11.17.19.14.07.18.12a1,1,0,0,0,.15.14l.23.19c.09.07.26.17.3.2l.21.18c.09.09.16.09.26.16s.06,0,.15.07a.39.39,0,0,1,.13.11.27.27,0,0,0,.12.07c.05,0,.05.06.11.12a.92.92,0,0,1,.12.16s.11.17.17.24.07.05.1.11a.32.32,0,0,0,.13.15c.05,0,.06.11.1.15l.2.25a1.23,1.23,0,0,1,.17.25l.22.33c.07.13,0,.21.08.26a.46.46,0,0,1,.1.24c0,.07,0,.2,0,.35A.89.89,0,0,0,23,32c0,.07,0,.09,0,.15a.65.65,0,0,0,0,.19s0,.08-.11.11a1.4,1.4,0,0,1-.17.09l-.19.07a.86.86,0,0,1-.21.07.81.81,0,0,1-.2,0h-.26l-.28,0a1,1,0,0,1-.25,0,1,1,0,0,0-.25,0,.75.75,0,0,1-.29,0,1.46,1.46,0,0,0-.3,0l-.29,0H19.9a1.66,1.66,0,0,0-.28-.05h-.33c-.16,0-.09,0-.19,0a2.63,2.63,0,0,1-.43,0c-.06,0-.08,0-.14,0a3,3,0,0,0-.4,0,.74.74,0,0,1-.24,0,3.9,3.9,0,0,0-.56,0h-.28a1.62,1.62,0,0,0-.19,0h-.32a3.05,3.05,0,0,0-.41,0c-.08,0-.19.08-.27.1a1.58,1.58,0,0,0-.29.12,1.18,1.18,0,0,0-.19.11,1.13,1.13,0,0,1-.18.12l-.28.21a1.3,1.3,0,0,0-.23.18.3.3,0,0,0-.09.21c0,.06,0,.17,0,.22a.55.55,0,0,0,0,.18s0,.17,0,.22a.51.51,0,0,0,.07.17.53.53,0,0,1,.06.14.6.6,0,0,0,.11.21c.06.08.11.12.16.18a1.47,1.47,0,0,0,.1.13.57.57,0,0,0,.12.11.75.75,0,0,0,.2.09.58.58,0,0,0,.17.06.18.18,0,0,0,.13,0s.1,0,.1-.06,0,0,.07,0,0,0,.07,0h.11a.41.41,0,0,0,.19,0h.15c.07,0,.05,0,.12,0s.09,0,.13,0l.14,0c.05,0,0,0,.08,0s.08,0,.13,0,.12-.08.15-.08a.25.25,0,0,0,.12,0s0,0,.07-.06.15,0,.18-.07a.67.67,0,0,1,.17-.07l.13-.1s.07,0,.1,0a.85.85,0,0,1,.19-.09l.18-.08.1,0a.09.09,0,0,0,.07,0,.19.19,0,0,1,.11,0c.06,0,0,0,.08,0a.59.59,0,0,1,.19-.08,2.85,2.85,0,0,0,.39-.17l.23-.12c.1,0,.16,0,.28-.07A.86.86,0,0,0,20,34a.85.85,0,0,1,.21-.07l.22-.07.27-.08a1.55,1.55,0,0,1,.23-.07,1.41,1.41,0,0,1,.18,0,.81.81,0,0,0,.22-.07.28.28,0,0,1,.15,0,.32.32,0,0,0,.14,0l.11,0,.21,0H22a.57.57,0,0,1,.16,0c.07,0,.07,0,.14,0a.2.2,0,0,1,.16.09.48.48,0,0,0,.13.16c.06.05.09.12.14.16a1,1,0,0,1,.14.15s0,.08.06.14a1.56,1.56,0,0,1,.13.26.44.44,0,0,0,.1.16s0,.09,0,.13a1.28,1.28,0,0,1,.1.25c0,.08,0,.09,0,.13s0,.11,0,.18a.54.54,0,0,1,0,.18,2.08,2.08,0,0,1,0,.25,2.15,2.15,0,0,1-.1.27c0,.06,0,.1,0,.2a2.55,2.55,0,0,1-.13.29,1.82,1.82,0,0,1-.15.26,1,1,0,0,0,0,.16,2.48,2.48,0,0,0-.13.22.36.36,0,0,1-.15.17.5.5,0,0,0-.1.11.61.61,0,0,1-.14.14,1.18,1.18,0,0,1-.19.1c-.06,0-.12.12-.16.15a.57.57,0,0,1-.16.11.45.45,0,0,0-.09.07l0,0a.44.44,0,0,0-.11.09s-.05,0-.1.08-.1.1-.16.15-.17.13-.23.19l-.45.39-.3.27-.15.15a1.31,1.31,0,0,0-.11.12,1.26,1.26,0,0,0-.2.2.52.52,0,0,1-.18.18.78.78,0,0,0-.21.23l-.23.27a1,1,0,0,0-.18.23,2.48,2.48,0,0,1-.19.26,1.94,1.94,0,0,0-.21.34,3.06,3.06,0,0,1-.18.29,3.08,3.08,0,0,0-.16.35c-.05.09-.12.25-.17.36a2.69,2.69,0,0,0-.1.32.43.43,0,0,0,0,.19,1.07,1.07,0,0,0,0,.25,1.08,1.08,0,0,1,0,.18,1,1,0,0,0,0,.17,2.09,2.09,0,0,0,.08.23,1.34,1.34,0,0,0,.13.23,1.73,1.73,0,0,0,.14.2s.1.12.15.2a1.94,1.94,0,0,0,.1.17s.07,0,.12.09a.55.55,0,0,1,.11.1l.24.18a.46.46,0,0,0,.21.1c.09,0,.11,0,.17,0s.06,0,.12,0,.09,0,.2,0l.23,0,.12,0c.06,0,.05,0,.09,0a1.46,1.46,0,0,0,.2,0s0,0,.07-.06,0,0,.08,0,.07-.06.12-.08l.17-.06c.06,0,.07,0,.14-.08l.17-.15.1-.08s0-.09.08-.14a.27.27,0,0,0,.06-.14s0,0,0-.11.06,0,.12-.1.14-.22.18-.25,0,0,0-.09.05-.08.09-.15l.11-.2a.38.38,0,0,0,.05-.12l.06-.1.07-.14c0-.06,0-.08,0-.11a.63.63,0,0,0,.08-.11,1.05,1.05,0,0,0,.13-.26,1.77,1.77,0,0,1,.08-.25,3.93,3.93,0,0,1,.18-.43,1.18,1.18,0,0,0,.1-.25c0-.08.09-.31.11-.38a.33.33,0,0,0,0-.17.47.47,0,0,0,0-.17,1.46,1.46,0,0,1,0-.22c0-.06,0-.09,0-.14s0-.09,0-.13,0-.12,0-.18,0-.06,0-.13a.91.91,0,0,0,0-.23.3.3,0,0,1,0-.2.19.19,0,0,0,.05-.15c0-.05,0-.07.05-.13a.23.23,0,0,0,0-.16.48.48,0,0,1,0-.17.7.7,0,0,1,.06-.19.54.54,0,0,0,0-.18c0-.06.05-.24.07-.33a.88.88,0,0,0,0-.27.65.65,0,0,1,0-.26s0,0,0-.07,0,0,0-.07l.06-.12c0-.07,0-.1,0-.15a.83.83,0,0,1,0-.12.24.24,0,0,0,0-.09.59.59,0,0,1,0-.08s0,0,.06-.09.06-.13.08-.15,0,0,0-.07,0,0,.06,0,0-.05,0-.09.12-.14.15-.19a.17.17,0,0,0,0-.11.21.21,0,0,1,0-.1s.05-.09.07-.11,0-.06,0-.1a.81.81,0,0,1,.1-.09.31.31,0,0,1,.07-.12.56.56,0,0,0,.07-.15.64.64,0,0,0,.06-.09.27.27,0,0,0,0-.13.12.12,0,0,1,.05-.07.57.57,0,0,1,.13-.1s0,0,.06,0a.13.13,0,0,1,.07-.05h.32a.53.53,0,0,1,.17,0l.16,0,.16,0h.21a1.29,1.29,0,0,1,.24,0l.17,0c.07,0,0,0,.1,0l.18.07c.06,0,0,.06.17.12a.66.66,0,0,0,.2.09,1.53,1.53,0,0,1,.21.13,1.34,1.34,0,0,0,.22.13l.2.12c.07,0,.11.1.22.18a.7.7,0,0,1,.14.16,1.42,1.42,0,0,0,.11.18.48.48,0,0,1,.09.11s0,.07.06.13,0,.07.09.12l.08.11a1.23,1.23,0,0,0,.08.12c.05.06,0,.05.05.1s0,0,.09.07,0,.09.12.17a.45.45,0,0,1,.12.15c0,.05,0,0,.09.08a.94.94,0,0,1,.09.12l.08.09s.07.06.08.1,0,.09.07.11a.2.2,0,0,1,.06.09s.05.09,0,.12,0,.06,0,.12a1.19,1.19,0,0,0,.08.16.25.25,0,0,1,0,.14.21.21,0,0,0,0,.11.67.67,0,0,1,.06.12.66.66,0,0,0,0,.11l.06.13.07.09c0,.05,0,.08,0,.12a1.18,1.18,0,0,0,.11.19s0,.06,0,.09a.21.21,0,0,0,0,.12l.06.1,0,.08a.41.41,0,0,0,.1.16l.13.22.1.15a.4.4,0,0,1,.07.15l.14.22s.06.13.09.17.05,0,.08.07,0,.07,0,.1a.25.25,0,0,0,.07.08s.05.1.11.14,0,0,.05.08a.9.9,0,0,1,.05.09s.1.08.14.12.07.14.12.18l.12.09.11.13a.28.28,0,0,0,.13.11c.05,0,.05.07.11.11l.15.13a2,2,0,0,0,.28.16l.14.1a.28.28,0,0,0,.18.06.1.1,0,0,1,.08,0l.19.1a.67.67,0,0,0,.18.07l.18,0,.12,0,.18,0a.14.14,0,0,0,.09,0,.24.24,0,0,1,.1,0s.11,0,.14,0l.14-.07.22-.16.17-.15s.07,0,.08-.07a.35.35,0,0,1,.1-.12s.06-.11.09-.13a.22.22,0,0,0,.1-.09l.11-.11a.2.2,0,0,0,.06-.12.36.36,0,0,0,0-.19" transform="translate(0 -1.51)"/><path class="cls-6" d="M22.44,34.84s0-.07,0-.1,0-.08,0-.13a.35.35,0,0,0-.11-.1s0-.07-.08-.09-.06-.06-.1-.05,0,0-.1,0a.47.47,0,0,0-.17,0c-.05,0,0,0-.09,0h-.1a.59.59,0,0,0-.16.08c-.07,0-.08.06-.13.07s0,.08,0,.13,0,.06,0,.12a.16.16,0,0,0,.05.11l.11.09.11.1a.1.1,0,0,0,.1,0s0,0,.05,0,0,0,0,0a.06.06,0,0,0,.07,0l.09-.06.12,0c.05,0,.06,0,.1,0s0-.05.08-.05.06,0,.07,0,0-.06,0-.08a1,1,0,0,0,0-.1" transform="translate(0 -1.51)"/></g></g></svg>